<?xml version="1.0" encoding="utf-8"?>
<!-- Generator: Adobe Illustrator 25.2.3, SVG Export Plug-In . SVG Version: 6.00 Build 0)  -->
<svg version="1.0" id="Layer_1" xmlns="http://www.w3.org/2000/svg" xmlns:xlink="http://www.w3.org/1999/xlink" x="0px" y="0px"
	 viewBox="0 0 430.38 120.51" style="enable-background:new 0 0 430.38 120.51;" xml:space="preserve">
<style type="text/css">
	.st0{fill:#FFFFFF;}
	.st1{fill:#ECECEC;}
	.st2{font-family:'ChaparralPro-Bold';}
	.st3{font-size:85.8654px;}
	.st4{fill:none;}
</style>
<g>
	<path class="st0" d="M334.05,79.76h22.51c-2.64,0.15-4.01,2.69-4.01,2.69l-24.96,34.53c-2.31,3.53-6.56,3.53-6.56,3.53h-22.99
		c2.44,0,5.4-4.59,5.4-4.59l23.9-33.1C327.35,82.82,328.63,79.76,334.05,79.76z"/>
	<path class="st0" d="M273.42,79.76h22.51c-2.64,0.15-4.01,2.69-4.01,2.69l-17.04,23.69c-2.31,3.54-6.56,3.54-6.56,3.54h-22.99
		c2.44,0,5.4-4.59,5.4-4.59l15.98-22.27C266.72,82.82,268,79.76,273.42,79.76z"/>
	<path class="st1" d="M282.57,97.4l14.12,19.22c0,0,1.94,2.84,5.04-0.64l10.98-15.45L297.94,81.2c0,0-2.17-2.29-4.29,0.67
		L282.57,97.4"/>
	<path class="st0" d="M415.01,79.76l-26.98,37.22c-2.31,3.53-6.55,3.53-6.55,3.53h-22.99c2.44,0,5.4-4.59,5.4-4.59l26.08-36.16
		h-18.74l48.9-37.48l10.25,37.59L415.01,79.76z"/>
	<path class="st1" d="M343.32,97.72l13.96,19.55c0,0,1.92,2.89,4.99-0.65l10.86-15.71l-14.61-19.66c0,0-2.14-2.33-4.24,0.69
		L343.32,97.72"/>
	<text transform="matrix(0.9512 0 0 1 -2.4502 60.019)" class="st0 st2 st3">daksanaya</text>
</g>
<rect x="-56.85" y="-62.64" class="st4" width="510.43" height="240.49"/>
</svg>
