<?xml version="1.0" encoding="utf-8"?>
<!-- Generator: Adobe Illustrator 25.2.3, SVG Export Plug-In . SVG Version: 6.00 Build 0)  -->
<svg version="1.0" id="Layer_1" xmlns="http://www.w3.org/2000/svg" xmlns:xlink="http://www.w3.org/1999/xlink" x="0px" y="0px"
	 viewBox="0 0 2128 2000" style="enable-background:new 0 0 2128 2000;" xml:space="preserve">
<style type="text/css">
	.st0{fill:#FEE4CB;}
	.st1{opacity:0.2;fill:#FFFFFF;}
	.st2{opacity:0.5;fill:#FFFFFF;}
	.st3{fill:#07085B;}
	.st4{fill:#06BFAD;}
	.st5{fill:#02CCC0;}
	.st6{fill:#FEB546;}
	.st7{fill:#55769F;}
	.st8{fill:#FF5B7E;}
	.st9{fill:#E03268;}
	.st10{fill:#1C2072;}
	.st11{fill:#4D5296;}
	.st12{fill:#EAF5F9;}
	.st13{fill:#DAEEF7;}
	.st14{fill:#CAE2EA;}
	.st15{opacity:0.5;fill:#CAE2EA;}
	.st16{fill:#F3FCFF;}
	.st17{fill:#B6D5E0;}
	.st18{fill:#DFEEF2;}
	.st19{opacity:0.3;fill:#06BFAD;}
	.st20{fill:#F4A640;}
	.st21{fill:#FFC0BB;}
	.st22{fill:#FFFFFF;}
	.st23{fill:#4188E4;}
	.st24{fill:#282828;}
	.st25{fill:#333333;}
	.st26{fill:#F99893;}
	.st27{fill:#3C5E8C;}
	.st28{fill:#FFCC68;}
	.st29{opacity:0.6;fill:#FC8D84;}
	.st30{fill:#FF5500;}
	.st31{fill:#FBF9EB;}
	.st32{fill:#F2B955;}
	.st33{opacity:0.5;fill:#DAEEF7;}
	.st34{fill:#EA9734;}
	.st35{opacity:0.6;}
	.st36{fill:#FC8D84;}
	.st37{fill:#8A452B;}
</style>
<g>
	<g>
		<g>
			<path class="st0" d="M216.81,1084.01c7.87-131.94-50.33-225.52,30.81-325.57c50.25-61.96,243.89-140.53,294.14-202.49
				c16.87-20.8,34.02-41.87,55.49-57.13c58.78-41.77,135.73-32.06,206.3-28.37c52.1,2.72,104.68,1.21,155.81-9.8
				c129.72-27.93,240.74-114.26,362.84-168.63c56.04-24.96,114.7-43.24,174.54-54.41c55.2-10.3,113.28-14.3,166.21,5.32
				c52.93,19.62,99.62,67.32,106.43,126.57c3.81,33.13-4.77,66.31-6.85,99.62c-2.08,33.3,4.52,70.92,30.09,90.23
				c20.68,15.62,48.33,15.24,71.67,25.79c59.25,26.78,71.2,110.84,63.46,178.9c-7.74,68.06-25.44,141.48,5,201.89
				c8.44,16.74,20.24,31.46,27.74,48.7c8.98,20.66,11.29,43.82,12.58,66.53c7.17,126.84-14.59,255.42-62.88,371.62
				c-8.04,19.35-17.12,38.82-31.62,53.28c-17.98,17.93-42.44,26.37-62.66,41.36c-22.71,16.84-39.45,41.46-61.67,59.01
				c-41.42,32.7-96.15,37.02-147.62,40.15c-143.45,8.7-289.29,17.19-429.13-17.97c-158.29-39.79-308.04-135.01-470.46-126.02
				c-85.34,4.72-173.17,38.13-253.94,8.36c-39.92-14.72-74.47-45.2-96.29-83.64c-23.12-40.74-22.22-91.38-47.66-130.59
				c-16.94-26.11-44.7-40.25-62.21-65.65C219.29,1190.99,213.94,1132.1,216.81,1084.01z"/>
			<path class="st1" d="M1956.22,1303.64c8.67-41.35,14.28-83.42,16.73-125.7c-81.42-12.55-164.66-18.71-242.35-43.09
				c-2.74-8.9,7.61-16.51,17.05-20.62c35.75-15.56,78.18-19.04,116.63-9.58c13.59,3.34,26.64,8.22,40.23,11.57
				c22.71,5.59,46.28,6.74,69.84,5.17c-0.12-13.42-0.53-26.83-1.29-40.22c-1-17.6-2.63-35.47-7.48-52.23
				c-37.37,0.62-74.97,1.03-111.76-4.64c-54.98-8.47-109.14-30.45-164.28-22.86c-33.75,4.65-64.21,20.06-96.94,28.62
				c-66.45,17.39-137.69,5.79-207.04,7.19c-26.04,0.53-53.05,3.2-75.25,15.11c-22.2,11.9-38.19,35.22-32.13,57.36
				c6.16,22.51,31.59,36.39,55.61,46.17c43.82,17.85,90.5,30.33,138.26,36.94c63.08,8.74,127.44,7.27,190.92,13.36
				c15.19,1.46,31.08,3.61,43.19,11.74c9.91,6.66,16.13,16.55,23.95,25.07c27.84,30.38,74.22,41.98,117.99,49.2
				C1883.8,1298.1,1919.93,1302.22,1956.22,1303.64z"/>
			<path class="st2" d="M1022.88,644.53c6.76-25.7,33.08-44.87,64.54-44.87c5.78,0,11.38,0.65,16.72,1.86
				c15.53-29.01,49.23-49.12,88.31-49.12c10.1,0,19.85,1.34,29.01,3.84c21.04-30.44,59.26-50.79,102.93-50.79
				c51.95,0,96.2,28.81,112.97,69.13c11.87-5.78,25.53-9.09,40.08-9.09c45.54,0,82.45,32.25,82.45,72.04c0,2.36-0.14,4.69-0.39,6.99
				H1022.88z"/>
			<path class="st2" d="M836.67,603.85c-1.86-7.09-9.12-12.37-17.8-12.37c-1.59,0-3.14,0.18-4.61,0.51
				c-4.28-8-13.58-13.55-24.35-13.55c-2.79,0-5.47,0.37-8,1.06c-5.8-8.39-16.34-14.01-28.39-14.01c-14.33,0-26.53,7.94-31.15,19.06
				c-3.27-1.59-7.04-2.51-11.05-2.51c-12.56,0-22.74,8.89-22.74,19.87c0,0.65,0.04,1.29,0.11,1.93H836.67z"/>
			<path class="st2" d="M1711.27,362.31c-2.67-10.16-13.08-17.74-25.52-17.74c-2.28,0-4.5,0.26-6.61,0.74
				c-6.14-11.47-19.47-19.42-34.92-19.42c-4,0-7.85,0.53-11.47,1.52c-8.32-12.04-23.43-20.08-40.7-20.08
				c-20.54,0-38.04,11.39-44.67,27.34c-4.69-2.29-10.1-3.59-15.85-3.59c-18.01,0-32.6,12.75-32.6,28.48c0,0.93,0.05,1.85,0.15,2.76
				H1711.27z"/>
			<path class="st2" d="M1925.92,680c-15.8-11.84-36.33-19-58.78-19c-32.84,0-61.58,15.3-77.4,38.19
				c-6.89-1.88-14.22-2.89-21.82-2.89c-29.39,0-54.73,15.12-66.41,36.94c-4.02-0.91-8.23-1.4-12.57-1.4
				c-23.66,0-43.46,14.42-48.54,33.74h287.17c0.06-0.52,0.12-1.03,0.18-1.54C1930.82,737.02,1930.79,707.48,1925.92,680z"/>
			<path class="st2" d="M258.08,747.19h318.83c-5.01-19.04-24.51-33.25-47.82-33.25c-4.28,0-8.43,0.48-12.39,1.38
				c-11.51-21.5-36.48-36.39-65.43-36.39c-7.49,0-14.71,1-21.5,2.84c-7.64-11.06-18.36-20.31-31.1-26.88
				C343.65,686.6,288.01,718.38,258.08,747.19z"/>
			<path class="st1" d="M1914.42,640.03c-10.33-24.33-26.45-44.18-50.13-54.89c-23.34-10.55-50.99-10.17-71.67-25.79
				c-12.68-9.58-20.69-23.66-25.29-39.49c-96.86-0.08-193.98,3.6-287.86-15.81c-7.83-1.62-15.94-3.54-21.93-8.23
				c-12.93-10.12-10.25-29.63,1.34-40.93c11.59-11.3,29.15-16.2,46.06-19.64c85.43-17.38,173.72-9.5,261.78-4.37
				c2.64-20.49,5.01-40.95,2.66-61.39c-0.77-6.7-2.07-13.24-3.81-19.61c-86.47,2.72-173.07-7.93-259.6-5.89
				c-9.9,0.23-20.56,0.87-28.24,6.34c-6.9,4.92-9.96,12.74-14.74,19.31c-14.37,19.77-42.89,26.96-68.89,32.62
				c-94.12,20.51-188.24,41.02-282.36,61.53c-25.59,5.58-52.48,11.77-71.35,27.87c-32.77,27.98-25.02,82.9,14.54,103.09
				c23.21,11.84,51.59,11.92,78.46,11.67c41.74-0.39,83.48-0.78,125.22-1.18c28.55-0.27,58.02-0.39,84.4,9.17
				c24.55,8.9,44.56,25.57,69,34.68c26.73,9.97,56.71,10.2,85.78,10.27c107.21,0.27,214.41,0.55,321.62,0.82
				c24.75,0.06,50.27,0,73.07-8.41C1900.44,648.85,1907.81,644.85,1914.42,640.03z"/>
		</g>
		<g>
			<path class="st3" d="M305.48,805.73c31.65-6.96,25.77,44.48,23.65,58.26c10.49,5.76,19.67,11.96,27.61,18.21
				c-3.79-16.54-16.66-26.02-16-37.13c0.74-12.46,9.33-24.92,23.21-7.27c10.99,13.99,0.64,37.65-4.13,46.87
				c13.55,11.12,23.3,22.18,29.88,30.9c-1.73-19.72-15.42-32.46-13.36-45c2.25-13.73,13.09-26.3,26.23-4.66
				c10.86,17.89-4.91,44.05-10.71,52.59c5.83,8.12,8.6,13.63,8.89,14.22c5.64,11.11,10.5,22.12,14.68,32.96
				c-1.14-17.41-10.7-30.76-7.44-41.89c3.92-13.36,16.12-24.21,26.32-0.51c8.07,18.75-8.75,41.21-16.13,49.78
				c8.24,22.86,13.49,44.87,16.68,65.37c4.21-15.8,0.02-41.15,8.37-54.31c5.48-8.64,12.07-8.87,16.67-7.52
				c3.93,1.15,7,4.26,8.5,8.49c8.48,23.86-23.13,49.84-32.95,57.2c3.64,25.29,4.15,48.15,3.24,67.27
				c2.24-8.16,5.57-20.48,7.05-26.96c2.33-10.21,10.17-22.91,18.7-26.17c0.36-0.14,0.71-0.26,1.05-0.36
				c6.59-2.01,13.05,2.01,15.51,8.89c9.6,26.88-33.35,47.67-42.73,51.85c-0.01,0.13-0.02,0.27-0.03,0.4
				c-3.36,48.13-15.23,78.74-15.73,80.02l-4.09-1.8c0.12-0.3,11.39-29.45,15.05-74.42c-37.76-18.79-40.2-48.56-31.71-56.34
				c8.77-8.05,25.28-6.32,26.17,14.87c0.51,12.29,3.6,24.89,6.11,33.31c1.1-19.24,0.77-42.62-2.92-68.64
				c-55.92-4.3-48.23-43.23-34.89-48.27c13.5-5.11,20.27,3.29,24.03,20.38c2.5,11.36,7.37,19.97,10.36,24.49
				c-3.06-20.12-8.15-41.76-16.15-64.24c-8.88,5.91-32.48,19.31-46.42,5.46c-17.42-17.31-5.17-28.09,7.1-29.05
				c11.28-0.88,20.89,16.24,38.14,20.33c-4.56-12.42-10-25.08-16.5-37.88c-0.1-0.21-5.65-11.28-18.32-25.73
				c-8.31,7.14-30.26,23.47-45.68,11.89c-19.36-14.55-8.32-26.9,3.84-29.59c10.85-2.4,22.03,12.1,38.87,14.39
				c-11.02-11.96-26.72-25.72-47.93-37.47c-8.67,7.34-30.07,22.82-45.18,11.46c-19.36-14.55-8.32-26.9,3.84-29.59
				c11-2.44,22.34,12.52,39.58,14.48l0.23-0.49c-4.68-4.71-14.63-14.67-19.63-19.15c-6.67-5.97-12.35-18.18-10.36-27.63
				C298.04,808.55,305.48,805.73,305.48,805.73z"/>
			<path class="st4" d="M254.86,1054.11l-63.13-24.19c-7.57-47.99-11.16-88.62-11.16-88.62c77.77,9.47,135.89,38.22,179.33,75.91
				l3.33,77.64l24.81-49.86c100.62,112.83,100.37,274.39,100.37,274.39s-212.52-103.66-251.48-142.44
				c-15.04-14.97-26.87-53.52-35.72-95.19C223.98,1071.76,254.86,1054.11,254.86,1054.11z"/>
			<path class="st5" d="M180.57,941.3c0,0,240.52,222.29,307.82,378.08c0,0-212.52-103.66-251.48-142.44
				c-15.04-14.97-26.87-53.52-35.72-95.19c22.79-9.99,53.67-27.64,53.67-27.64l-63.13-24.19
				C184.15,981.94,180.57,941.3,180.57,941.3z"/>
			<path class="st6" d="M138.41,1010.31c19.45-15.65,33.02,21.84,36.29,32.07c9.21,0.38,17.66,1.51,25.28,3.1
				c-8.28-10.11-20.41-12.24-23.77-20.12c-3.76-8.85-2.11-20.39,13.52-12.97c12.38,5.88,13.35,25.75,13.22,33.75
				c13.16,3.02,23.68,7.31,31.2,11.07c-7.95-13.01-21.76-17.1-24.64-26.46c-3.15-10.24,0.01-22.63,16.49-12.21
				c13.62,8.61,11.72,32.07,10.64,39.95c6.81,3.6,10.61,6.45,11.01,6.76c7.7,5.73,14.82,11.66,21.43,17.7
				c-6.75-11.62-17.93-17.55-19.49-26.34c-1.88-10.55,2.82-22.22,17.98-9.38c11.99,10.16,8.1,31.42,5.95,39.87
				c13.52,12.94,24.69,26.32,33.91,39.37c-2.51-12.34-14.1-28.39-12.85-40.33c0.82-7.83,5.29-10.26,8.92-10.9
				c3.1-0.55,6.29,0.54,8.77,2.94c14.03,13.55,1.14,42.31-3.12,50.75c11.18,16.19,19.37,31.79,25.3,45.29
				c-1.25-6.39-3.18-16.04-4.38-21.01c-1.89-7.84-0.84-19.29,3.93-24.47c0.2-0.22,0.4-0.42,0.6-0.61c3.86-3.64,9.69-3.09,13.74,0.81
				c15.84,15.25-6.66,44.32-11.69,50.41c0.04,0.09,0.08,0.19,0.12,0.29c14.18,34.35,16.49,59.53,16.59,60.58l-3.44,0.16
				c-0.02-0.24-2.24-24.21-15.14-56.49c-32.48-0.01-44.37-19.71-41.19-27.99c3.29-8.56,15.27-13.03,23.14,1.28
				c4.57,8.3,11.02,15.93,15.63,20.88c-5.84-13.64-14.08-29.66-25.55-46.34c-40.04,16.21-48.08-13.28-40.61-21.33
				c7.56-8.15,15.11-4.68,23.56,5.82c5.62,6.97,11.93,11.25,15.54,13.34c-9.01-12.83-19.94-26.01-33.16-38.77
				c-4.1,7.12-15.78,24.45-30.14,19.68c-17.95-5.97-13.19-17.6-5.06-22.47c7.48-4.47,19.98,4.04,33.27,0.95
				c-7.4-7-15.5-13.87-24.36-20.47c-0.14-0.11-7.77-5.84-21.46-11.47c-3.28,7.77-12.83,26.57-27.43,23.86
				c-18.34-3.4-14.96-15.7-7.5-21.73c6.66-5.38,19.35,0.79,31.74-3.4c-11.7-4.47-27.25-8.58-45.9-9.41
				c-3.46,8.04-12.92,26.05-27.23,23.4c-18.34-3.4-14.96-15.7-7.5-21.73c6.75-5.45,19.7,0.97,32.27-3.58l-0.01-0.41
				c-4.84-1.65-15.12-5.1-20.1-6.48c-6.65-1.83-14.75-8.3-16.61-15.5C134.25,1014.8,138.41,1010.31,138.41,1010.31z"/>
			<path class="st7" d="M120.44,1135.47c46.65-9.42,89.71-7.9,128.82,0.66c6.01,17.56,13.64,38.41,13.64,38.41l12.97-31.36
				c145.51,45.36,229.36,184.26,229.36,184.26c-101.85,22.21-177.79,10.98-234.04-14.68c0.61-12.4,1.78-30.79,1.78-30.79
				l-19.52,21.9c-26.2-14.41-47.57-31.95-64.89-50.21c10.23-11.32,21.45-24.43,21.45-24.43l-37.21,6.34
				C132.57,1185.22,120.44,1135.47,120.44,1135.47z"/>
			<path class="st3" d="M271.19,1312.76c0.61-12.4,1.78-30.79,1.78-30.79l-19.52,21.9c-26.2-14.41-47.57-31.95-64.89-50.21
				c10.23-11.32,21.45-24.43,21.45-24.43l-37.21,6.34c-40.24-50.35-52.37-100.1-52.37-100.1
				c173.77,41.18,384.79,191.97,384.79,191.97C403.38,1349.65,327.43,1338.42,271.19,1312.76z"/>
		</g>
		<g>
			<path class="st4" d="M1795.08,1059.66l41.57-21.62c1.44-33.63,0.71-61.9,0.71-61.9c-52.8,12.64-76.8,23.34-103.75,52.71
				l-4.74,44.78l-17.94-25.88c-60.41,85.6-55.8,212.92-55.8,212.92s138.17-88.08,161.95-117.85c9.18-11.49,14.29-38.96,17.11-68.35
				C1817.73,1069.39,1795.08,1059.66,1795.08,1059.66z"/>
			<path class="st5" d="M1837.36,976.15c0,0-148.12,171.96-182.22,284.52c0,0,138.17-88.08,161.95-117.85
				c9.18-11.49,14.29-38.96,17.11-68.35c-16.47-5.08-39.13-14.81-39.13-14.81l41.57-21.62
				C1838.08,1004.41,1837.36,976.15,1837.36,976.15z"/>
			<path class="st8" d="M1894.03,1105.11c-32.86-2.82-62.39,1.61-88.65,10.58c-2.75,12.56-6.37,27.52-6.37,27.52l-11.39-20.57
				c-96.62,42.68-143.44,144.91-143.44,144.91c71.87,7.28,123.28-6.42,159.99-28.51c-1.4-8.49-3.65-21.06-3.65-21.06l15.16,13.54
				c16.91-11.98,30.24-25.74,40.73-39.67c-7.94-6.99-16.69-15.14-16.69-15.14l26.12,1.44
				C1889.59,1140.32,1894.03,1105.11,1894.03,1105.11z"/>
			<path class="st9" d="M1804.17,1239.03c-1.4-8.49-3.65-21.06-3.65-21.06l15.16,13.54c16.91-11.98,30.24-25.74,40.73-39.67
				c-7.94-6.99-16.69-15.14-16.69-15.14l26.12,1.44c23.75-37.83,28.19-73.04,28.19-73.04c-116.41,42.02-249.85,162.44-249.85,162.44
				C1716.05,1274.83,1767.46,1261.13,1804.17,1239.03z"/>
		</g>
		<g>
			<polygon class="st10" points="1689.75,776.29 1075.9,640.33 1075.9,1602.35 1689.75,1731.92 			"/>
			<polygon class="st3" points="1705.82,1731.68 1689.75,1731.92 1689.75,769.84 1705.82,769.6 			"/>
			<polygon class="st11" points="1075.9,640.33 1082.94,635.01 1705.82,769.6 1689.75,776.29 			"/>
			<polygon class="st10" points="462.05,776.29 1075.9,640.33 1075.9,1602.35 462.05,1731.92 			"/>
			<path class="st12" d="M487.8,785.39l545.57-135.48c0,0,28.65,12.04,42.53,10.37L816.61,876.98c0,0-179.66,23.28-184.23,15.53
				C627.81,884.77,487.8,785.39,487.8,785.39z"/>
			<polygon class="st13" points="487.8,1727.4 557.32,1758.5 557.32,816.49 487.8,785.39 			"/>
			<g>
				<polygon class="st14" points="1075.9,1602.35 557.32,1758.5 557.32,816.42 1075.9,660.27 				"/>
				<polygon class="st15" points="1023.94,814.23 609.28,939.09 609.28,871.24 1023.94,746.38 				"/>
				<polygon class="st15" points="1023.94,843.8 763.11,922.34 763.11,910.17 1023.94,831.62 				"/>
				<polygon class="st15" points="1023.94,874.25 763.11,952.79 763.11,940.61 1023.94,862.07 				"/>
				<polygon class="st15" points="1023.94,904.69 763.11,983.24 763.11,971.06 1023.94,892.52 				"/>
				<polygon class="st15" points="1023.94,935.14 763.11,1013.68 763.11,1001.5 1023.94,922.96 				"/>
				<polygon class="st15" points="1023.94,965.59 763.11,1044.13 763.11,1031.95 1023.94,953.41 				"/>
				<polygon class="st15" points="1023.94,996.03 763.11,1074.57 763.11,1062.39 1023.94,983.85 				"/>
				<polygon class="st15" points="1023.94,1026.48 763.11,1105.02 763.11,1092.84 1023.94,1014.3 				"/>
				<polygon class="st15" points="1023.94,1056.92 763.11,1135.46 763.11,1123.29 1023.94,1044.75 				"/>
				<polygon class="st15" points="1023.94,1087.37 763.11,1165.91 763.11,1153.73 1023.94,1075.19 				"/>
				<polygon class="st15" points="1023.94,1117.81 763.11,1196.36 763.11,1184.18 1023.94,1105.64 				"/>
				<polygon class="st15" points="1023.94,1148.26 609.28,1273.12 609.28,1260.94 1023.94,1136.08 				"/>
				<polygon class="st15" points="816.61,1241.14 609.28,1303.57 609.28,1291.39 816.61,1228.96 				"/>
				<polygon class="st15" points="816.61,1271.58 609.28,1334.01 609.28,1321.83 816.61,1259.4 				"/>
				<polygon class="st15" points="816.61,1302.03 609.28,1364.46 609.28,1352.28 816.61,1289.85 				"/>
				<polygon class="st15" points="816.61,1332.47 609.28,1394.9 609.28,1382.73 816.61,1320.29 				"/>
				<polygon class="st15" points="816.61,1362.92 609.28,1425.35 609.28,1413.17 816.61,1350.74 				"/>
				<polygon class="st15" points="816.61,1393.36 609.28,1455.79 609.28,1443.62 816.61,1381.19 				"/>
				<polygon class="st15" points="816.61,1423.81 609.28,1486.24 609.28,1474.06 816.61,1411.63 				"/>
				<polygon class="st15" points="816.61,1454.26 609.28,1516.69 609.28,1504.51 816.61,1442.08 				"/>
				<polygon class="st15" points="816.61,1484.7 609.28,1547.13 609.28,1534.95 816.61,1472.52 				"/>
				<polygon class="st15" points="1023.94,1452.72 609.28,1577.58 609.28,1565.4 1023.94,1440.54 				"/>
				<polygon class="st15" points="1023.94,1483.16 609.28,1608.02 609.28,1595.84 1023.94,1470.99 				"/>
				<polygon class="st15" points="1023.94,1513.61 609.28,1638.47 609.28,1626.29 1023.94,1501.43 				"/>
				<polygon class="st15" points="609.28,1242.68 745.96,1201.52 745.96,915.33 609.28,956.49 				"/>
				<polygon class="st15" points="831.24,1480.29 1023.94,1422.27 1023.94,1166.53 831.24,1224.55 				"/>
			</g>
			<path class="st16" d="M1664,785.39L1118.43,649.9c0,0-28.65,12.04-42.53,10.37l259.29,216.71c0,0,179.66,23.28,184.23,15.53
				C1524,884.77,1664,785.39,1664,785.39z"/>
			<polygon class="st17" points="1664,1727.4 1594.48,1758.5 1594.48,816.49 1664,785.39 			"/>
			<polygon class="st13" points="1075.9,1602.35 1594.48,1758.5 1594.48,816.42 1075.9,660.27 			"/>
			<g>
				<polygon class="st18" points="1076.21,1602.35 1594.79,1758.5 1594.79,816.42 1076.21,660.27 				"/>
				<polygon class="st15" points="1128.17,814.23 1542.83,939.09 1542.83,871.24 1128.17,746.38 				"/>
				<polygon class="st15" points="1128.17,843.8 1389.01,922.34 1389.01,910.17 1128.17,831.62 				"/>
				<polygon class="st15" points="1128.17,874.25 1389.01,952.79 1389.01,940.61 1128.17,862.07 				"/>
				<polygon class="st15" points="1128.17,904.69 1389.01,983.24 1389.01,971.06 1128.17,892.52 				"/>
				<polygon class="st15" points="1128.17,935.14 1389.01,1013.68 1389.01,1001.5 1128.17,922.96 				"/>
				<polygon class="st15" points="1128.17,965.59 1389.01,1044.13 1389.01,1031.95 1128.17,953.41 				"/>
				<polygon class="st15" points="1128.17,996.03 1389.01,1074.57 1389.01,1062.39 1128.17,983.85 				"/>
				<polygon class="st15" points="1128.17,1026.48 1389.01,1105.02 1389.01,1092.84 1128.17,1014.3 				"/>
				<polygon class="st15" points="1128.17,1056.92 1389.01,1135.46 1389.01,1123.29 1128.17,1044.75 				"/>
				<polygon class="st15" points="1128.17,1087.37 1389.01,1165.91 1389.01,1153.73 1128.17,1075.19 				"/>
				<polygon class="st15" points="1128.17,1117.81 1389.01,1196.36 1389.01,1184.18 1128.17,1105.64 				"/>
				<polygon class="st15" points="1128.17,1148.26 1542.83,1273.12 1542.83,1260.94 1128.17,1136.08 				"/>
				<polygon class="st15" points="1335.5,1241.14 1542.83,1303.57 1542.83,1291.39 1335.5,1228.96 				"/>
				<polygon class="st15" points="1335.5,1271.58 1542.83,1334.01 1542.83,1321.83 1335.5,1259.4 				"/>
				<polygon class="st15" points="1335.5,1302.03 1542.83,1364.46 1542.83,1352.28 1335.5,1289.85 				"/>
				<polygon class="st15" points="1335.5,1332.47 1542.83,1394.9 1542.83,1382.73 1335.5,1320.29 				"/>
				<polygon class="st15" points="1335.5,1362.92 1542.83,1425.35 1542.83,1413.17 1335.5,1350.74 				"/>
				<polygon class="st15" points="1335.5,1393.36 1542.83,1455.79 1542.83,1443.62 1335.5,1381.19 				"/>
				<polygon class="st15" points="1335.5,1423.81 1542.83,1486.24 1542.83,1474.06 1335.5,1411.63 				"/>
				<polygon class="st15" points="1335.5,1454.26 1542.83,1516.69 1542.83,1504.51 1335.5,1442.08 				"/>
				<polygon class="st15" points="1335.5,1484.7 1542.83,1547.13 1542.83,1534.95 1335.5,1472.52 				"/>
				<polygon class="st15" points="1128.17,1452.72 1542.83,1577.58 1542.83,1565.4 1128.17,1440.54 				"/>
				<polygon class="st15" points="1128.17,1483.16 1542.83,1608.02 1542.83,1595.84 1128.17,1470.99 				"/>
				<polygon class="st15" points="1128.17,1513.61 1542.83,1638.47 1542.83,1626.29 1128.17,1501.43 				"/>
				<polygon class="st15" points="1542.83,1242.68 1406.15,1201.52 1406.15,915.33 1542.83,956.49 				"/>
				<polygon class="st15" points="1320.87,1480.29 1128.17,1422.27 1128.17,1166.53 1320.87,1224.55 				"/>
			</g>
			<polygon class="st3" points="445.99,1731.68 462.05,1731.92 462.05,769.84 445.99,769.6 			"/>
			<polygon class="st11" points="1075.9,640.33 1068.86,635.01 445.99,769.6 462.05,776.29 			"/>
			<path class="st3" d="M1126.28,644.45c-19.67-7-35.33-9.18-45.55-9.71c-6.2-0.57-25.23-1.07-54.58,9.37c0,0,1.77,1.88,5.35,4.33h0
				c0,0,0,0,0,0c5.15,3.51,14.08,8.2,26.95,10.16C1097.97,666.87,1126.28,644.45,1126.28,644.45z"/>
			<polygon class="st17" points="1106.37,654.41 1638.61,796.75 1646.67,1735.15 1629.24,1748.93 1629.24,800.94 			"/>
		</g>
		<g>
			<g>
				<g>
					<path class="st9" d="M1494.87,1890.99l-413.64-145.01l327.61-180.74l423.1,151.27l-318.07,172.94
						C1508.04,1892.63,1501.14,1893.19,1494.87,1890.99z"/>
					<path class="st13" d="M1113.4,1588.95c0,0,62.22,71.96-9.74,150.69l389.72,146.45c9.63,3.62,20.49,1.37,27.88-5.79l14.13-13.68
						c0,0,49.1-134.6,49.1-137.99s-98.2-82.96-98.2-82.96s-161.69-19.47-165.92-19.47C1316.15,1626.2,1113.4,1588.95,1113.4,1588.95
						z"/>
					<path class="st13" d="M1537.1,1842.07c-2.54,0-289.52-94.81-289.52-94.81s286.13,104.02,286.98,101.48
						C1535.4,1846.2,1537.1,1842.07,1537.1,1842.07z"/>
					<path class="st9" d="M1091.39,1585.14v8.89l411.42,140.95c0,0,25.4,31.75,22.86,74.92s-11.89,77.29-25.43,77.76
						c0,0,8.55,0.71,12.87-1.97c4.31-2.67,14.36-11.67,14.36-11.67s17.04-76.82,17.88-78.73c0.85-1.9-8.89-64.55-15.45-69.21
						c-6.56-4.66-1.06-12.06-32.17-17.78c-31.11-5.71-276.18-115.77-282.11-114.28c-5.93,1.48-56.72-0.85-59.47,0
						C1153.4,1594.88,1091.39,1585.14,1091.39,1585.14z"/>
					<path class="st9" d="M1509.16,1731.17c0,0,52.38,88.9,0,160.22l348.78-189c0,0,41.06-84.23-11.85-137.14L1509.16,1731.17z"/>
					<polygon class="st8" points="1509.16,1731.17 1091.39,1585.14 1468.53,1456.89 1846.09,1565.25 					"/>
					<path class="st13" d="M1442.28,1759.95l-304.02-105.78c0.11,2.23,0.14,4.49,0.09,6.79L1442.28,1759.95z"/>
					<path class="st13" d="M1134.81,1685.72c-0.84,3.11-1.85,6.26-3.04,9.44l223.1,72.84L1134.81,1685.72z"/>
				</g>
				<g>
					<path class="st4" d="M1442.6,1685.07l421.98-125.3l-317.22-156.18l-431.8,130.72l308.12,149.44
						C1429.34,1686.49,1436.21,1686.97,1442.6,1685.07z"/>
					<path class="st13" d="M1841.45,1424.08c0,0-66.36,62.18,1.07,130.21l-398.15,126.55c-9.84,3.13-20.57,1.18-27.55-5
						l-13.35-11.82c0,0-41.36-116.31-41.16-119.23c0.19-2.93,102.97-71.69,102.97-71.69s162.81-16.82,167.04-16.82
						C1636.56,1456.26,1841.45,1424.08,1841.45,1424.08z"/>
					<path class="st13" d="M1403.19,1642.8c2.54,0,294.97-81.93,294.97-81.93s-292.12,89.88-292.82,87.69
						C1404.65,1646.36,1403.19,1642.8,1403.19,1642.8z"/>
					<path class="st4" d="M1863.68,1420.79l-0.51,7.68l-419.53,121.79c0,0-27.22,27.43-27.17,64.74
						c0.06,37.31,7.45,66.78,20.96,67.19c0,0-8.59,0.61-12.75-1.7c-4.16-2.31-13.69-10.08-13.69-10.08s-12.62-66.38-13.35-68.03
						c-0.74-1.65,12.6-55.78,19.43-59.8c6.83-4.02,1.75-10.42,33.19-15.36s282.84-100.03,288.69-98.75c5.84,1.28,56.77-0.73,59.47,0
						S1863.68,1420.79,1863.68,1420.79z"/>
					<path class="st4" d="M1437.51,1546.97c0,0-57.49,76.82-9.22,138.45l-337.9-163.32c0,0-36.21-72.78,19.74-118.5L1437.51,1546.97
						z"/>
					<polygon class="st5" points="1437.51,1546.97 1863.68,1420.79 1493.92,1309.96 1110.13,1403.6 					"/>
					<path class="st13" d="M1502.73,1571.84l310.11-91.41c-0.23,1.92-0.39,3.88-0.48,5.87L1502.73,1571.84z"/>
					<path class="st13" d="M1814.47,1507.69c0.66,2.68,1.49,5.41,2.49,8.16l-227.29,62.94L1814.47,1507.69z"/>
				</g>
				<path class="st19" d="M1166.92,1428.47c0,0-56.89,59.34-12.42,124.72l25.17,12.06c0,0-32.36-78.21,15.72-124.32L1166.92,1428.47
					z"/>
				<g>
					<path class="st20" d="M1539.77,1532.02l-351.5-119.27l255.92-148.01l359.75,124.42l-248.66,141.62
						C1550.73,1533.37,1545.09,1533.82,1539.77,1532.02z"/>
					<path class="st13" d="M1202.81,1283.95c0,0,56.68,59.08,3.44,123.6l331.92,120.44c8.2,2.98,16.97,1.14,22.51-4.73l10.59-11.21
						c0,0,30.18-110.38,29.92-113.16c-0.26-2.78-87.13-68.13-87.13-68.13s-134.57-16.1-138.05-16.1
						C1372.53,1314.66,1202.81,1283.95,1202.81,1283.95z"/>
					<path class="st13" d="M1570.8,1491.91c-2.09,0-245.51-78-245.51-78s243.43,85.55,243.93,83.47
						C1569.72,1495.3,1570.8,1491.91,1570.8,1491.91z"/>
					<path class="st20" d="M1184.4,1280.81l0.67,7.29l349.36,115.94c0,0,23.32,26.06,24.51,61.48c1.19,35.42-3.91,63.39-15.02,63.77
						c0,0,7.09,0.59,10.44-1.6c3.34-2.19,10.94-9.56,10.94-9.56s8.18-63.01,8.74-64.57c0.55-1.56-12.22-52.96-17.98-56.78
						c-5.75-3.82-1.79-9.9-27.83-14.61c-26.04-4.71-236.13-95.18-240.9-93.97s-46.75-0.74-48.95-0.05S1184.4,1280.81,1184.4,1280.81
						z"/>
					<path class="st20" d="M1539.38,1400.92c0,0,49.87,72.97,12.18,131.43l272.71-154.77c0,0,27.39-69.06-20.18-112.51
						L1539.38,1400.92z"/>
					<polygon class="st6" points="1539.38,1400.92 1184.4,1280.81 1485.08,1175.89 1804.09,1265.07 					"/>
					<path class="st13" d="M1486.52,1424.48l-258.28-87.01c0.26,1.83,0.45,3.68,0.59,5.57L1486.52,1424.48z"/>
					<path class="st13" d="M1227.79,1363.34c-0.46,2.55-1.05,5.13-1.78,7.74l189.17,59.92L1227.79,1363.34z"/>
				</g>
			</g>
			<polygon class="st20" points="1508.94,1365.18 1303.48,1293.11 1344.09,1275.43 1561.76,1339.95 			"/>
			<path class="st8" d="M1267.44,1377.66c0,0-21.19,21.49-11.53,50.48c0,0,6.44-15.03,12.88-19.33c0,0-1.07,18.25,6.44,25.77
				c0,0,6.64-40.45,26.94-44.38L1267.44,1377.66z"/>
			<path class="st6" d="M1509.16,1613.67c0,0,13.03,15.25,11.95,34.58c0,0,7.15-9.89,8.95-17.29c0,0,7.16,3.33,11.46,11.92
				c0,0,8.03-20.47-0.28-38.15L1509.16,1613.67z"/>
			<path class="st5" d="M1307.98,1713.22c0,0-22,29.51-14.48,76.75c0,0,7.52-19.33,24.69-30.06c0,0,7.52,31.14,11.81,41.87
				c0,0,17.16-62.65,37.57-67.83L1307.98,1713.22z"/>
		</g>
		<g>
			<path class="st21" d="M774.26,529.48c27.07,7.71,122.31-14.21,153.53-21.79l1.09-0.53l11.02-7.71
				c9.12-6.04,18.48-13.03,19.43-12.64c1.34,0.55,1.38,1.81-6.04,12.32c-0.48,0.68-0.02,1.64,0.82,1.67
				c6.47,0.24,26.81,1.12,27.13,2.79c0.38,1.98-17.82,1.63-18.47,3.38c-0.65,1.75,17.11,1.64,17.17,3.81
				c0.07,2.18-16.13,1.74-16.42,2.66c-0.29,0.93,15.19,3.01,15.99,4.27c0.81,1.26-15.98,1.05-16.65,2.07
				c-0.67,1.02,10.88,5.03,10.65,6.06c-0.23,1.03,2.71,0.73-25.84-0.84c0,0-7.14-0.58-9.87-0.97l-7.09,3.26
				c-57.53,33.36-166.34,36.45-166.34,36.45L774.26,529.48z"/>
			<g>
				<path class="st6" d="M705.07,508.8c0,0-13.22,12.53-21.52,3.84c0,0-23.82,5.16-21.83-15.81c0,0-16.23-9.82-10.24-28.68
					c0,0-14.57-13.26,1.37-28.56c0,0-10.49-17.9,9.65-23.94c0,0,2.6-30.64,31.23-22.45c0,0,21.58-23.25,40.16-8.63
					c0,0,19.41-6.39,27.52,15.92c0,0,20.59,6.91,13.06,32.2c0,0,20.01,22.08,6.75,44.44c0,0,7.01,29.92-26.65,26.09
					C720.9,499.37,705.07,508.8,705.07,508.8z"/>
				<path class="st8" d="M799.32,570.47c0,0-35.19,12.38-64.71,4.44c-5.47-1.47-9.38-6.4-9.32-12.08
					c0.07-5.96-10.74-30.71,1.53-34.07c26.3-7.21,65.13-5.45,65.13-5.45S804.45,541.37,799.32,570.47z"/>
				<path class="st8" d="M703.54,520.97c0,0-29.3,5.21-39.53,16.98c-10.23,11.76-36.39,142.01-30.12,165.31l123.79-17.73
					c0,0,13.35-104.07,10.65-134.09s-35.45-28.78-35.45-28.78L703.54,520.97z"/>
				<path class="st22" d="M768.23,576.98c0.46-15.77,0-26.63,0-26.63C769.97,561.18,768.23,576.98,768.23,576.98z"/>
				<path class="st22" d="M660.12,618.3c0,0,5.2,2.54,11.67,2.54c5.51-8.73,13.21-30.87,12.6-49.95
					C672.6,590.36,660.12,618.3,660.12,618.3z"/>
				<path class="st23" d="M845.01,809.06l-5.2,18.07c-0.43,1.49,0.43,3.05,1.93,3.47l42.38,12.1c3.07,0.88,5.39-2.79,3.27-5.17
					l-21.34-24.35C866.05,813.18,856.68,819.75,845.01,809.06z"/>
				<path class="st24" d="M767.71,688.39c0,0,85.02-23.9,94.95-22.83c11.04,1.19,41.45,19.87,7.02,152.77c0,0-16.55,5.29-26.64-6.17
					l0.69-75.69c0,0-61.49,33.7-80.47,25.49C744.29,753.75,767.71,688.39,767.71,688.39z"/>
				<path class="st23" d="M708.49,808.59l-11.36,15c-0.94,1.24-0.69,3,0.55,3.94l35.16,26.53c2.54,1.92,6.03-0.67,4.91-3.65
					L726.62,820C726.62,820,715.52,822.77,708.49,808.59z"/>
				<path class="st25" d="M636.98,702.81c0,0-1.66,87.1,86.62,54.24l-17.64,54.76c0,0,12.63,12.95,21.44,11.41
					c8.12-1.42,91.99-103.58,43.24-139.75c-7.01-5.2-15.58-7.85-24.32-8C724.27,675.11,666.93,676.85,636.98,702.81z"/>
				<path class="st21" d="M703.89,533.82L703.89,533.82l-0.78-28.65l28.4-0.32l5.75,25.01
					C737.27,529.86,721.26,548.16,703.89,533.82z"/>
				<path class="st26" d="M735.36,521.57l-3.85-16.71l-28.4,0.32l0.38,14.06C709.7,524.14,720.38,528.74,735.36,521.57z"/>
				<path class="st26" d="M758.01,467.88c-0.9,4.85,1.52,9.36,5.41,10.07c3.89,0.71,7.78-2.65,8.68-7.5
					c0.9-4.85-1.52-9.36-5.41-10.07C762.8,459.67,758.91,463.03,758.01,467.88z"/>
				<path class="st21" d="M762.15,494.3c0.72-2.16,1.24-4.4,1.55-6.7c0.95-6.2,0.77-12.53,0.19-17.96
					c-0.13-1.17-0.18-2.34-0.22-3.51c-0.15-4.73-1.17-9.57-3.28-14.32c-6.79-15.29-23.17-24.46-39.81-22.25
					c-22.43,2.98-37.09,24.17-32.63,45.65c-2.61-0.81-5.31-0.56-7.41,0.96c-4.04,2.91-4.36,9.33-0.73,14.35
					c3.63,5.02,9.85,6.73,13.88,3.83c0.56-0.4,1.04-0.88,1.46-1.41c5.66,17.89,23.62,28.86,41.59,24.8
					c8.79-1.99,16.03-7.22,20.84-14.23c0.33-0.42,0.67-0.9,1.02-1.45C760.14,499.65,761.29,497.02,762.15,494.3z"/>
				<path class="st26" d="M733.74,465.26c0.65,2.09,1.23,4.14,1.89,6.12c0.67,1.93,1.47,3.98,2.64,5.15l0.22,0.18
					c0.08,0.07,0.11,0.11,0.27,0.22c0.26,0.21,0.55,0.37,0.78,0.64c0.48,0.48,0.88,1.09,1.08,1.78c0.43,1.38,0.04,2.83-0.68,3.85
					c-1.45,2.1-3.85,2.92-6.01,2.98c1.96-0.93,3.75-2.18,4.53-3.84c0.35-0.81,0.5-1.66,0.18-2.32c-0.13-0.33-0.34-0.64-0.63-0.9
					c-0.12-0.15-0.32-0.24-0.47-0.37l-0.36-0.28l-0.41-0.33c-0.97-0.94-1.49-2.02-1.92-3.09c-0.41-1.08-0.69-2.15-0.88-3.25
					C733.6,469.63,733.49,467.44,733.74,465.26z"/>
				<path class="st25" d="M722.27,471.42c0.4,1.79-0.73,3.58-2.53,3.98c-1.8,0.41-3.59-0.72-3.99-2.51
					c-0.4-1.79,0.73-3.58,2.53-3.98C720.08,468.5,721.86,469.62,722.27,471.42z"/>
				<path class="st25" d="M750.67,466.92c0.4,1.79-0.73,3.58-2.53,3.98c-1.8,0.41-3.59-0.72-3.99-2.51
					c-0.4-1.79,0.73-3.58,2.53-3.98C748.48,464,750.26,465.13,750.67,466.92z"/>
				<path class="st3" d="M724.32,463.05c-1.78-0.05-3.43-0.01-5.02,0.17c-1.59,0.19-3.09,0.56-4.5,1.13
					c-1.39,0.59-2.77,1.3-3.99,2.32c-0.68,0.43-1.21,1.05-1.87,1.57c-0.63,0.56-1.17,1.2-1.89,1.78c0.2-0.86,0.47-1.71,0.84-2.53
					c0.44-0.77,0.84-1.61,1.47-2.28c1.12-1.46,2.73-2.57,4.47-3.29c1.75-0.71,3.67-0.96,5.49-0.76
					C721.12,461.39,722.89,461.97,724.32,463.05z"/>
				<path class="st3" d="M738.95,460.74c0.99-1.5,2.46-2.64,4.09-3.46c1.65-0.8,3.54-1.22,5.42-1.13c1.87,0.09,3.76,0.59,5.31,1.6
					c0.82,0.42,1.47,1.08,2.15,1.66c0.62,0.65,1.16,1.37,1.64,2.11c-0.87-0.3-1.6-0.73-2.37-1.04c-0.8-0.27-1.5-0.67-2.29-0.85
					c-1.5-0.55-3.02-0.76-4.54-0.85c-1.52-0.07-3.06,0.09-4.62,0.45C742.17,459.57,740.6,460.09,738.95,460.74z"/>
				<path class="st21" d="M670.31,595.95c-17.04,22.45-31.4,119.32-35.75,151.22l0.09,1.21l3.14,13.09
					c2.29,10.72,5.37,21.99,4.66,22.74c-1,1.05-2.18,0.63-9.24-10.12c-0.46-0.7-1.51-0.61-1.85,0.15
					c-2.58,5.95-10.82,24.61-12.48,24.3c-1.98-0.37,4.98-17.22,3.59-18.47c-1.39-1.25-7.76,15.37-9.81,14.63
					c-2.05-0.73,4.27-15.69,3.51-16.3c-0.75-0.61-8.34,13.07-9.8,13.37c-1.47,0.29,4.85-15.3,4.15-16.3c-0.7-1-8.64,8.32-9.52,7.73
					c-0.88-0.59-1.67,2.26,10.2-23.81c0,0,3.14-6.46,4.5-8.86l-0.44-7.81c-10.01-65.85,26.8-168.51,26.8-168.51L670.31,595.95z"/>
				<path class="st8" d="M625.55,604.98c0,0,9.17-50.62,37.78-68.79c12.1-7.68,19.03-10.58,24.46-7.43
					c5.7,3.31-6.72,15.6-4.23,29.48c4.93,27.49-12.8,62-12.8,62S646.75,617.56,625.55,604.98z"/>
				<path class="st6" d="M689.98,429.87l-0.43,24.73l57.47-15.53c0,0,6.48,5.45,7.43,5.31c0.95-0.14,8.23-3.46,7.91-4.51
					c-0.31-1.04-21.08-27.09-21.08-27.09s-19.06,4.86-20.76,5.37C718.82,418.66,689.98,429.87,689.98,429.87z"/>
				<path class="st8" d="M687.19,465.96c0,0,29.31-25.42,74.11-12.19c0,0-0.29-5.16-2.25-11.68c0,0-30.42-19.68-73.24,11.51
					C685.82,453.59,683.54,456.79,687.19,465.96z"/>
				<path class="st22" d="M749.22,489.46c-0.67,5.73-5.69,10.46-12.18,11.05c-6.49,0.58-12.27-3.18-13.93-8.7L749.22,489.46z"/>
			</g>
		</g>
		<g>
			<path class="st3" d="M547.02,1781.31v19.54c0,1.61-1.31,2.92-2.93,2.92h-45.83c-3.32,0-4.58-4.32-1.78-6.1l25.1-16.36
				C521.59,1781.31,532.28,1788.67,547.02,1781.31z"/>
			<path class="st3" d="M648.06,1781.31v19.54c0,1.61,1.31,2.92,2.93,2.92h45.82c3.32,0,4.58-4.32,1.78-6.1l-25.11-16.36
				C673.49,1781.31,662.8,1788.67,648.06,1781.31z"/>
			<polygon class="st21" points="594.75,1287.76 594.62,1319.71 625.71,1314.92 620.52,1279 			"/>
			<path class="st3" d="M636.29,1311.28c0,0,22.06,5.43,40.4,19.23c18.34,13.8,55.28,40.39,53.51,67.49
				c-1.76,27.1-31,69.44-31,69.44l-9.78-20.29c0,0,8.86-47.66,6.87-49.42c-1.99-1.76-39.93-36.04-39.93-36.04L636.29,1311.28z"/>
			<path class="st7" d="M687.37,1497.93c-0.08-3.56,9.2,6.94,9.03,4.09c-3.64-59.11-119.32-9.55-119.32-9.55l-28.24,20.69
				l-36.94,273.8c0,0,18.6,6.63,35.23,2.15l69.11-235.84l8.68-3.33C624.92,1549.93,663.53,1523.04,687.37,1497.93z"/>
			<path class="st27" d="M696.38,1488.59c-23.83,25.11-71.46,61.34-71.46,61.34l0,0l23.16,237.46c0,0,22.81,3.36,33.74-2.55
				C681.82,1784.85,697.94,1559.07,696.38,1488.59z"/>
			<path class="st27" d="M548.84,1513.16l-4.55,39.1c12.04,4.65,41.38,9.63,63.5-38.67c6.97-15.23,8.76-26.19,7.48-34.06
				c-21.18,5.65-38.19,12.94-38.19,12.94L548.84,1513.16z"/>
			<path class="st28" d="M654.98,1353.57c-0.97,0-11.87-24.06-17.72-37.13c-1.83-4.09-6.56-6.07-10.74-4.44
				c-15.83,6.16-33.32-0.1-33.32-0.1s-52.5,183.3-30.83,197.7c56.79,37.74,121.99-5.78,121.99-5.78s8.37-34.26,8.37-35.6
				C692.73,1466.89,656.31,1353.57,654.98,1353.57z"/>
			<path class="st3" d="M593.2,1311.9c0,0-10.03,14.82-10.98,14.58c-6.79-1.23-25.55-17.89-28.76,37.32
				c1.78,16.89-14.3,153.52-14.3,153.52c43.63,20.45,55.93,8.51,55.93,8.51C604,1484.48,593.2,1311.9,593.2,1311.9z"/>
			<path class="st3" d="M593.2,1311.9c0,0-28.24,3.6-48.91,13.38c-20.67,9.78-57.41,29.43-55.94,56.82
				c1.47,27.39,54.17,85.34,54.17,85.34l7.96-7.97l7.06-10.76l-36.26-63.93l46.49-19.42L593.2,1311.9z"/>
			<path class="st3" d="M642.03,1314.94c13.29,14.55,39.78,59.72,60.86,197.25c0,0-23.41,14.19-50.15,15.65
				c0,0-6.94-181.94-26.64-215.68l0,0C631.42,1309.38,637.97,1310.5,642.03,1314.94z"/>
			<path class="st21" d="M685.61,1441.19c7.04,4.75,11.01,13.15,13.24,20.48c0.09,0.36,0.18,0.73,0.27,1.1
				c1.4,5.92-1.64,7.09-3.17,7.32c-0.46,0.07-0.93-0.19-1.16-0.63c-0.43-0.82-0.99-1.86-1.84-3.23c-4.93-7.98-10.66,5.07-12.37,1.86
				c-2.16-4.06,7.33-7.56,6.07-9.62c-2.37-3.86-7.83,5.05-9.65,2.63c-2-2.65,8.81-5.18,6.15-9.65c-1.42-2.4-8.59,5.22-9.46,2
				c-0.91-3.38,8.15-4.78,6.56-7.52c-2.35-4.06-7.37,5.04-9.37,2.18C669.67,1446.38,680.62,1437.83,685.61,1441.19z"/>
			<path class="st29" d="M622.91,1295.54l-2.39-16.54l-25.8,11.79l-0.01,6.31C600.93,1298.61,612.56,1299.97,622.91,1295.54z"/>
			<polygon class="st3" points="639.35,1222.56 641.23,1244.49 637.76,1246.67 631.34,1219.96 			"/>
			<path class="st26" d="M634.68,1242.22c-0.95,4.97,1.5,9.61,5.48,10.37c3.98,0.76,7.98-2.65,8.93-7.61s-1.5-9.61-5.48-10.37
				C639.64,1233.85,635.64,1237.25,634.68,1242.22z"/>
			<path class="st21" d="M638.75,1269.35c0.75-2.21,1.3-4.5,1.63-6.86c1.02-6.35,0.87-12.84,0.31-18.42c-0.12-1.2-0.17-2.4-0.2-3.6
				c-0.12-4.85-1.13-9.82-3.26-14.72c-6.85-15.75-23.56-25.3-40.63-23.19c-22.99,2.85-38.13,24.44-33.71,46.51
				c-2.67-0.85-5.43-0.62-7.6,0.91c-4.15,2.94-4.53,9.53-0.84,14.71c3.69,5.18,10.04,7,14.19,4.05c0.58-0.41,1.07-0.89,1.5-1.43
				c5.68,18.4,24,29.82,42.43,25.82c9.01-1.96,16.46-7.26,21.44-14.4c0.34-0.43,0.69-0.92,1.06-1.48
				C636.65,1274.82,637.84,1272.14,638.75,1269.35z"/>
			<path class="st25" d="M598.05,1245.52c0.4,1.84-0.77,3.66-2.62,4.06c-1.85,0.4-3.67-0.77-4.07-2.61
				c-0.4-1.84,0.77-3.66,2.62-4.06C595.83,1242.51,597.65,1243.68,598.05,1245.52z"/>
			<path class="st25" d="M627.16,1241.17c0.4,1.84-0.77,3.66-2.62,4.06c-1.85,0.4-3.67-0.77-4.07-2.61s0.77-3.66,2.62-4.06
				C624.94,1238.16,626.76,1239.32,627.16,1241.17z"/>
			<path class="st30" d="M600.65,1238.02c-1.78-0.32-3.46-0.52-5.11-0.55c-1.65-0.03-3.24,0.15-4.75,0.56
				c-1.5,0.43-3,0.99-4.37,1.89c-1.85,1.05-3.24,2.38-4.19,3c0.63-1.58,1.63-3.45,3-4.55c1.32-1.33,3.09-2.24,4.93-2.74
				c1.85-0.5,3.81-0.51,5.63-0.09C597.59,1235.99,599.31,1236.78,600.65,1238.02z"/>
			<path class="st30" d="M614.24,1235.79c0.86-1.61,2.25-2.9,3.82-3.9c1.59-0.98,3.45-1.59,5.37-1.71c1.9-0.11,3.86,0.19,5.55,1.02
				c1.65,0.6,3.21,2.06,4.3,3.35c-1.21-0.32-2.77-1.09-4.93-1.5c-1.59-0.41-3.18-0.47-4.75-0.4c-1.57,0.09-3.13,0.43-4.68,0.99
				C617.36,1234.19,615.83,1234.92,614.24,1235.79z"/>
			<path class="st30" d="M635.26,1199.15c0,0,11.54-2.22-2.67-9.17c-14.21-6.96-49.05-11-67.26,4.57c0,0-6.12-7.85-11.63-4.4
				c-5.5,3.45,5.73,7.26,5.73,7.26s-7.69,1.48-9.17,5.75c-1.1,3.15,3.61,2.22,6.13,1.52c-4.18,1.72-16.47,13.31-0.51,44.96
				c2.83-1.32,21.09-27.34,21.09-27.34s36.72,12.05,30.03,2.06c0,0,42.8,10.75,32.42-8.62
				C639.43,1215.73,655.2,1213.36,635.26,1199.15z"/>
			<path class="st30" d="M576.98,1222.29c0.59,2.14-9.54,24.96-14.09,26.79c-3.66,0.04-7,0.55-7,0.55
				c-1.13-6.5,9.87-24.66,9.87-24.66L576.98,1222.29z"/>
			<path class="st26" d="M608.92,1236.34c-0.23,2.46-0.06,4.92,0.4,7.35c0.23,1.22,0.56,2.43,1.04,3.63c0.5,1.19,1.1,2.39,2.19,3.43
				c1.22,0.95,1.78,1.22,2.14,2.12c0.37,0.77,0.2,1.73-0.19,2.66c-0.88,1.89-2.88,3.3-5.08,4.35c2.42-0.12,5.09-1.08,6.67-3.45
				c0.77-1.14,1.19-2.76,0.69-4.29c-0.53-1.62-1.54-2.23-2.66-3.12c-0.68-0.62-1.24-1.59-1.74-2.59c-0.52-1-0.88-2.12-1.3-3.21
				C610.31,1240.99,609.65,1238.68,608.92,1236.34z"/>
			<path class="st3" d="M534.37,1406.98c-3.99-6.88-8-13.74-12.1-20.56c-0.33-0.56-0.67-1.11-1.01-1.67
				c1.08-0.39,2.15-0.79,3.22-1.19c4.18-1.55,8.32-3.18,12.45-4.84c4.12-1.68,8.23-3.38,12.31-5.18c4.08-1.78,8.14-3.62,12.14-5.6
				c-4.26,1.35-8.45,2.86-12.62,4.41c-4.18,1.55-8.32,3.18-12.45,4.84c-4.12,1.68-8.24,3.38-12.31,5.17
				c-4.08,1.78-8.14,3.62-12.14,5.6c2.77-0.88,5.52-1.83,8.25-2.81c0.35,0.63,0.69,1.27,1.05,1.9c3.87,6.95,7.81,13.85,11.78,20.75
				c3.99,6.88,8,13.74,12.1,20.56c4.07,6.83,8.24,13.61,12.5,20.33c-3.7-7.04-7.49-14.04-11.38-20.98
				C542.29,1420.78,538.34,1413.88,534.37,1406.98z"/>
			<path class="st21" d="M563.45,1456.72c-0.43-0.42-0.21-1.15,0.38-1.28c9.08-1.92,9.67-2.6,9.23-3.54
				c-0.25-0.55-8.38-2.03-15.6-3.25c0.05,0.03,0.08,0.05,0.08,0.05l-4.65,7.37c0,0-7.29,8.19-7.47,8.38c0,0-0.01,0.01-0.01,0.02
				c0.45,0.6,0.73,1,0.73,1c14.39,14.76,14.73,14.37,15.35,13.93c0.62-0.43-3.54-8.18-2.68-8.39c0.86-0.21,9.66,8.09,9.85,7.04
				c0.19-1.06-7-9.71-6.39-10.06c0.61-0.35,8.99,7.79,10.02,6.61c1.03-1.18-8.45-9.79-7.25-10.39c1.2-0.6,10.69,8.46,11.46,7.23
				C577.13,1470.4,566.76,1460,563.45,1456.72z"/>
			<path class="st3" d="M542.52,1467.44l3.96-4.54c1.3-1.53,2.62-3.03,3.89-4.58c1.28-1.54,2.53-3.1,3.74-4.69
				c0.6-0.8,1.21-1.59,1.76-2.43c0.6-0.8,1.11-1.66,1.67-2.5c-0.77,1.86-1.81,3.61-2.91,5.3c-1.1,1.69-2.35,3.28-3.62,4.84
				c-1.29,1.55-2.64,3.05-4.06,4.48C545.53,1464.76,544.08,1466.16,542.52,1467.44z"/>
			<path class="st22" d="M622.76,1265.87c-0.19,4.31-4.04,8.27-9.37,9.27c-5.33,1-10.35-1.3-12.09-5.25L622.76,1265.87z"/>
		</g>
		<g>
			<path class="st8" d="M1267.07,570.77c0,0-26.63-2.54-44.27,10.19c-17.64,12.72-38.24,34.22-82.98,20.85
				c0,0,21.15,25.44,49.27,28.19c28.12,2.75,20.53-19.9,84.51-6.55l-3.14-27.09L1267.07,570.77z"/>
			<polygon class="st21" points="1412.8,995.72 1416.77,1257.28 1423.43,1276.16 1443.48,1257.29 1462.63,989.05 			"/>
			<path class="st21" d="M1532.46,1004.64l-50.14-0.03c0,0,23.47,251.15,23.3,252.71c-0.17,1.56,8.45,12.85,8.45,12.85l18.26-12.83
				L1532.46,1004.64z"/>
			<polygon class="st21" points="1412.8,995.72 1416.77,1257.28 1423.43,1276.16 1443.48,1257.29 1462.63,989.05 			"/>
			<path class="st21" d="M1532.46,1004.64l-50.14-0.03c0,0,23.47,251.15,23.3,252.71c-0.17,1.56,8.45,12.85,8.45,12.85l18.26-12.83
				L1532.46,1004.64z"/>
			<path class="st31" d="M1415.71,1187.65l1.06,69.63l6.66,18.88l20.05-18.86l5.02-70.27
				C1433.13,1192.96,1421.73,1190.23,1415.71,1187.65z"/>
			<path class="st31" d="M1499.33,1187.64c3.61,39.15,6.34,69.15,6.28,69.68c-0.17,1.56,8.45,12.85,8.45,12.85l18.26-12.83
				l0.04-69.38C1518.12,1192.27,1506.16,1189.93,1499.33,1187.64z"/>
			<path class="st5" d="M1405.35,1008.55c14.25,5.71,36.37,11.44,60.81,6.23l0,0l3.4-36.77c2.56,2.24,4.08,3.3,4.08,3.3l3.26,32.28
				l0,0c0,0,27.08,9.91,60.21,3.81c0.12-14.35,0.15-27.07,0.07-37.24c-0.61-73.46-23.31-84.22-23.31-84.22l-38.66-9.81l-8.49,1.46
				c-13.51-4.45-37.96-9.53-48.04,7.34c-14.27,23.89-13.48,97.57-13.48,97.57S1405.25,998.43,1405.35,1008.55z"/>
			<path class="st21" d="M1431.3,821.21l-36.25-16.8l3.27,38.4c0,0-68.63-31.2-72.1-34.34c-1.15-1.05-2.47-3.79-3.74-7
				c-1.33-3.38-2.22-6.89-3.02-10.42c-1.2-5.33-5.76-9.6-7.29-10.99c-0.67-0.6-2.59-4.24-3.05-5.9c-0.31-1.13-1.98-1.04-2.16,0.12
				l-0.37,2.4c-0.36,2.35,0.46,4.79,0.99,6.09l-0.95-0.37l-1.59,16.15l1.93,14.12l10.86,8.18c0,0,95.62,68.9,104.37,59.91
				C1431.6,871.09,1431.3,821.21,1431.3,821.21z"/>
			<path class="st3" d="M1443.48,1257.29l-0.01,19.92c0,1.64-1.38,2.98-3.08,2.98l-48.14-0.03c-3.48,0-4.81-4.41-1.87-6.22
				l26.38-16.66C1416.77,1257.28,1427.99,1264.79,1443.48,1257.29z"/>
			<path class="st3" d="M1532.33,1257.34l-0.01,19.92c0,1.65-1.38,2.98-3.08,2.98l-48.14-0.02c-3.48,0-4.81-4.41-1.87-6.22
				l26.38-16.66C1505.61,1257.33,1516.84,1264.83,1532.33,1257.34z"/>
			<path class="st32" d="M1423.1,739.98c0,0-7.43,1.76-18.18,15.05c-10.75,13.29-20.34,50.06-20.34,50.06l34.29,18.75l22.34-44.4
				L1423.1,739.98z"/>
			<path class="st22" d="M1520.16,952.05c-3.62,1.33-7.19,2.77-10.72,4.3c-3.53,1.53-7.01,3.15-10.47,4.82
				c-3.46,1.66-6.9,3.38-10.3,5.15c-3.4,1.79-6.8,3.57-10.14,5.44l-0.27-0.64c2.53-0.54,5.06-0.9,7.61-1.17
				c2.55-0.26,5.12-0.36,7.68-0.36c2.56-0.01,5.13,0.14,7.67,0.45l1.9,0.25l1.89,0.34l0.94,0.17l0.93,0.22l1.86,0.45l-1.88-0.36
				l-0.94-0.18l-0.95-0.14l-1.89-0.27l-1.9-0.18c-0.63-0.07-1.27-0.1-1.91-0.13c-0.64-0.03-1.27-0.09-1.91-0.1l-1.91-0.04
				c-0.64-0.01-1.27,0.01-1.91,0.02c-2.55,0.05-5.09,0.23-7.62,0.5c-2.53,0.28-5.05,0.66-7.51,1.21l-2.28,0.5l2.01-1.14
				c3.35-1.9,6.72-3.74,10.15-5.48c3.42-1.75,6.88-3.45,10.36-5.09c3.49-1.63,7.03-3.15,10.6-4.62c1.79-0.71,3.59-1.42,5.41-2.06
				C1516.49,953.23,1518.33,952.65,1520.16,952.05z"/>
			<path class="st22" d="M1418.65,950.54c1.83,0.6,3.67,1.18,5.48,1.86c1.82,0.64,3.61,1.35,5.41,2.06c3.56,1.47,7.1,3,10.59,4.63
				c3.48,1.65,6.93,3.35,10.36,5.1c3.43,1.75,6.8,3.59,10.15,5.49l2.01,1.15l-2.28-0.51c-2.46-0.55-4.99-0.93-7.51-1.21
				c-2.53-0.28-5.07-0.46-7.62-0.51c-0.64,0-1.27-0.03-1.91-0.02l-1.91,0.04c-0.64,0.01-1.27,0.07-1.91,0.09
				c-0.64,0.03-1.27,0.06-1.91,0.13l-1.91,0.18l-1.89,0.27l-0.95,0.14l-0.94,0.18l-1.88,0.36l1.86-0.45l0.93-0.22l0.94-0.17
				l1.89-0.34l1.9-0.25c2.54-0.31,5.11-0.45,7.67-0.44c2.57,0,5.13,0.11,7.68,0.37c2.55,0.27,5.09,0.63,7.61,1.17l-0.27,0.64
				c-3.34-1.88-6.74-3.66-10.13-5.45c-3.4-1.78-6.83-3.5-10.3-5.16c-3.46-1.67-6.94-3.29-10.47-4.83
				C1425.83,953.32,1422.27,951.87,1418.65,950.54z"/>
			<path class="st33" d="M1426.39,908.12c3.14,0.55,6.29,1,9.45,1.41c3.16,0.41,6.33,0.77,9.5,1.08c6.34,0.62,12.71,1.03,19.08,1.16
				c3.19,0.07,6.37,0.08,9.56,0c3.18-0.09,6.37-0.26,9.54-0.51c3.17-0.28,6.34-0.64,9.48-1.14c3.14-0.51,6.26-1.15,9.34-1.96
				c-3.06,0.87-6.17,1.57-9.31,2.14c-3.14,0.54-6.31,0.94-9.49,1.25c-3.18,0.3-6.37,0.46-9.56,0.57c-3.19,0.09-6.39,0.09-9.58,0.03
				c-6.38-0.17-12.76-0.57-19.1-1.25c-3.17-0.34-6.34-0.73-9.49-1.18C1432.66,909.24,1429.51,908.73,1426.39,908.12z"/>
			<path class="st3" d="M1509.68,672.13c0,0,6.77-35.04-12.96-47.38c-19.74-12.34-40.08-10.17-53.68-1.88
				c-13.6,8.29-25.68,34.62-9.18,59.87l40.66-25.24L1509.68,672.13z"/>
			<path class="st34" d="M1498.18,920c0.13,0.37,0.33,0.71,0.51,1.07l0.55,1.05l1.11,2.09l1.86,3.46l5.3,9.21
				c0.73,1.4,7.68,13.51,9.33,16.22c-2.05-2.45-4.52-4.87-6.18-7.56c-0.84-1.35-1.62-2.72-2.42-4.09c-0.78-1.38-1.53-2.77-2.28-4.17
				c-1.47-2.8-2.88-5.63-4.2-8.5c-0.67-1.43-1.3-2.88-1.92-4.33c-0.3-0.73-0.61-1.46-0.89-2.2
				C1498.67,921.5,1498.36,920.77,1498.18,920z"/>
			<path class="st28" d="M1565.74,782.86c-15.58-18.82-32.19-36.24-47.15-45.6c-12.48-7.82-33.22-9.97-38.15-9.92
				c-12.17-1.53-21.01-2.18-27.55,1.17c-19.47,2.7-39.92,13.61-40.19,20.45c-1.34,34.15-1.74,60.33-1.56,80.4
				c0,0.06-0.61,72.77-0.09,88.3c0,0,79.04,17.08,119.48,6.86c0,0,6.73-95.1-2.85-120.79l4.08,5.21
				C1531.77,808.93,1548.04,805.24,1565.74,782.86z"/>
			<path class="st21" d="M1563.35,785.82c-10.73,13.04-22.6,19.95-28.55,22.13l38.2,45.81l-69.97,75.35l12.3,21.45
				c9.73-4.71,11.93-22.6,11.93-22.6s86.57-57.82,86.58-71.66C1613.85,837.75,1563.35,785.82,1563.35,785.82z"/>
			<path class="st31" d="M1563.97,784.91c-0.6,0.67-1.14,1.39-1.77,2.04l-1.85,1.96l-0.92,0.99l-0.97,0.94l-1.94,1.87
				c-0.65,0.61-1.35,1.19-2.02,1.79c-1.32,1.22-2.79,2.26-4.17,3.4c-2.88,2.15-5.9,4.08-9.05,5.79l-1.18,0.63
				c-0.4,0.2-0.81,0.39-1.21,0.58c-0.8,0.4-1.62,0.75-2.44,1.1c-0.41,0.18-0.83,0.33-1.24,0.5c-0.41,0.16-0.83,0.33-1.25,0.47
				c-0.57,0.21-1.16,0.4-1.73,0.57l-4.18-5.01l-4.75-5.59c-3.15-3.74-6.38-7.41-9.58-11.11c-3.24-3.67-6.47-7.34-9.76-10.97
				c-3.29-3.63-6.59-7.25-10-10.79c2.9,3.94,5.9,7.8,8.91,11.64c3.01,3.85,6.08,7.65,9.15,11.46c3.1,3.78,6.18,7.58,9.33,11.32
				l4.7,5.63l4.75,5.59l0.52,0.61l0.75-0.2c1-0.26,1.86-0.56,2.76-0.89c0.89-0.32,1.76-0.68,2.61-1.07c0.85-0.39,1.7-0.78,2.52-1.22
				c0.41-0.21,0.83-0.42,1.24-0.64l1.21-0.69c3.23-1.84,6.23-4.01,9.08-6.34l2.06-1.83c0.7-0.6,1.34-1.25,1.99-1.89
				c0.64-0.65,1.31-1.28,1.93-1.94l1.81-2.05l0.9-1.02l0.84-1.07l1.67-2.15c1.08-1.45,2.05-2.98,3.06-4.47L1563.97,784.91z"/>
			<path class="st21" d="M1452.86,729.99c0,0,15.69,9.31,27.92,0.01l0,0l-2.87-22.71l-24.33-5.03L1452.86,729.99L1452.86,729.99z"/>
			<g class="st35">
				<path class="st36" d="M1453.19,717.08l0.39-14.81l24.68,7.69l0.69,5.55C1473.47,717.5,1463.06,719.9,1453.19,717.08z"/>
			</g>
			<path class="st21" d="M1436.01,695.68c-0.92-1.87-1.66-3.83-2.22-5.87c-1.61-5.48-2.17-11.22-2.26-16.18
				c-0.02-1.07-0.1-2.13-0.21-3.19c-0.42-4.29-0.03-8.77,1.38-13.3c4.52-14.58,18.66-24.73,34.37-24.65
				c21.17,0.11,37.23,17.54,35.59,37.44c2.33-1.03,4.86-1.11,6.99,0.01c4.08,2.16,5.13,7.92,2.35,12.87
				c-2.79,4.95-8.36,7.21-12.44,5.05c-0.57-0.3-1.07-0.68-1.52-1.1c-3.18,16.79-18.57,28.76-35.72,27.16
				c-8.39-0.78-15.72-4.67-21-10.44c-0.36-0.34-0.73-0.73-1.12-1.19C1438.5,700.27,1437.13,698.04,1436.01,695.68z"/>
			<path class="st25" d="M1470.37,670.45c-0.17,1.66,1.09,3.14,2.81,3.3c1.72,0.16,3.25-1.06,3.41-2.72
				c0.17-1.66-1.09-3.14-2.81-3.3C1472.06,667.57,1470.54,668.79,1470.37,670.45z"/>
			<path class="st25" d="M1443.49,669.66c-0.17,1.66,1.09,3.14,2.81,3.3c1.72,0.16,3.24-1.06,3.41-2.72
				c0.17-1.66-1.09-3.14-2.81-3.3C1445.18,666.77,1443.65,667.99,1443.49,669.66z"/>
			<path class="st3" d="M1467.21,664.12c1.58-0.46,3.09-0.82,4.58-1.01c1.49-0.2,2.95-0.2,4.37,0c1.41,0.22,2.83,0.56,4.17,1.21
				l0.52,0.21c0.17,0.07,0.33,0.18,0.5,0.26l1.02,0.53c0.69,0.37,1.32,0.83,2.08,1.2c-0.39-0.7-0.84-1.39-1.36-2.02
				c-0.59-0.56-1.12-1.23-1.85-1.67c-1.35-1.03-3.04-1.65-4.76-1.9c-1.73-0.25-3.52-0.05-5.12,0.5
				C1469.77,662.02,1468.29,662.88,1467.21,664.12z"/>
			<path class="st3" d="M1454.63,663.57c-0.96-1.33-2.35-2.32-3.88-3.03c-1.54-0.7-3.3-1.04-5.05-0.95
				c-1.74,0.1-3.49,0.57-4.92,1.48c-0.77,0.37-1.36,0.99-2,1.5c-0.58,0.58-1.09,1.23-1.54,1.89c0.79-0.3,1.46-0.7,2.18-1.01
				l1.07-0.44c0.18-0.07,0.34-0.16,0.52-0.22l0.54-0.17c1.4-0.53,2.84-0.75,4.26-0.84c1.43-0.08,2.89,0.06,4.36,0.38
				C1451.64,662.49,1453.1,662.97,1454.63,663.57z"/>
			<path class="st26" d="M1459.53,663.5c0.47,2.14,0.58,4.32,0.43,6.52c-0.08,1.1-0.25,2.2-0.55,3.31c-0.32,1.1-0.74,2.22-1.62,3.25
				l-0.38,0.36l-0.34,0.31c-0.14,0.15-0.34,0.26-0.45,0.43c-0.27,0.3-0.46,0.63-0.56,0.99c-0.25,0.71,0,1.55,0.46,2.32
				c1,1.57,2.97,2.61,5.08,3.3c-2.21,0.15-4.74-0.42-6.43-2.34c-0.83-0.93-1.38-2.31-1.09-3.71c0.07-0.35,0.17-0.68,0.34-0.99
				c0.14-0.33,0.35-0.6,0.56-0.87c0.2-0.29,0.47-0.48,0.71-0.71c0.15-0.13,0.18-0.17,0.25-0.25l0.21-0.2
				c0.55-0.62,0.96-1.53,1.3-2.46c0.37-0.94,0.57-1.96,0.84-2.97C1458.76,667.74,1459.12,665.64,1459.53,663.5z"/>
			<path class="st22" d="M1449.86,688.49c1.04,3.71,5.62,6.46,11.05,6.36c5.43-0.09,9.91-2.99,10.82-6.73L1449.86,688.49z"/>
			<path class="st3" d="M1501.75,671.01c2.05-1.91,3.68-1.84,3.68-1.84l-1.39-11.2l-3.75-6.63c0,0-14.38-17.68-14.88-18.12
				s-11.16-5.92-11.82-6.2c-0.66-0.28-15.19,2.49-15.19,2.49s-25.92-4.26-21.06,9.01c4.86,13.28,23.9,19.6,24.84,18.97
				c-3.17-2.9-3.81-11.44-3.81-11.44C1472.23,659.95,1497.78,669.56,1501.75,671.01z"/>
			<polygon class="st37" points="1266.95,570.66 1350.44,1274.14 1354.52,1273.69 1271.04,570.31 			"/>
			<path class="st21" d="M1297.19,797.35c-0.05-0.78,0.17-3.24,0.28-3.77c0.31-1.47,1.42-2.65,2.9-3.1l1.68-0.51l0.15,3.77l0,0
				c-0.14,2.88-0.2,2.68,3.79,4.41c5.69,2.47,3.31,5.45,3.31,5.45s-1.58,2.12-8.54-1.37
				C1300.75,802.25,1297.41,800.49,1297.19,797.35z"/>
			<path class="st21" d="M1296.6,800.58c-0.05-0.74,0.16-3.08,0.27-3.58c0.29-1.4,1.35-2.53,2.76-2.95l1.6-0.48l0.14,3.59l0,0
				c-0.13,2.74-0.19,2.55,3.61,4.2c5.42,2.36,3.15,5.19,3.15,5.19s-1.51,2.02-8.13-1.3C1299.99,805.24,1296.8,803.57,1296.6,800.58z
				"/>
			<path class="st21" d="M1297.47,804.88c-0.04-0.62,0.14-2.61,0.23-3.03c0.25-1.18,1.14-2.14,2.33-2.5l1.35-0.41l0.12,3.04h0
				c-0.11,2.32-0.16,2.16,3.05,3.55c4.58,1.99,2.66,4.39,2.66,4.39s-1.28,1.71-6.88-1.1
				C1300.34,808.83,1297.64,807.41,1297.47,804.88z"/>
			<path class="st21" d="M1298.43,792.71c-0.05-0.78,0.17-3.24,0.28-3.77c0.31-1.47,1.42-2.65,2.89-3.1l1.68-0.51l0.15,3.77l0,0
				c-0.14,2.88-0.2,2.68,3.79,4.41c5.69,2.48,3.31,5.45,3.31,5.45s-1.58,2.12-8.54-1.37
				C1301.99,797.61,1298.65,795.86,1298.43,792.71z"/>
			<path class="st26" d="M1303.43,789.11c0.01,0.63-0.03,1.28,0.09,1.89c0.11,0.62,0.66,0.99,1.24,1.25
				c1.16,0.56,2.39,0.96,3.59,1.55c0.29,0.17,0.58,0.32,0.87,0.5c0.27,0.2,0.56,0.37,0.8,0.62c0.51,0.44,0.94,1.01,1.17,1.68
				c0.23,0.67,0.17,1.42-0.11,2.06c-0.07,0.16-0.15,0.31-0.26,0.47c-0.15,0.2-0.31,0.29-0.47,0.39c-0.33,0.19-0.68,0.28-1.03,0.34
				c-0.7,0.1-1.39,0.06-2.06-0.06c-0.67-0.11-1.31-0.29-1.94-0.49c-1.26-0.43-2.45-0.95-3.62-1.6c-1.12-0.72-2.1-1.66-2.73-2.82
				c-0.3-0.58-0.5-1.22-0.56-1.86c-0.05-0.32,0-0.64,0.02-0.96l0.08-0.95l0.02,0.95c0.01,0.31-0.02,0.63,0.06,0.94
				c0.11,0.61,0.34,1.2,0.67,1.73c0.65,1.06,1.63,1.93,2.71,2.56c1.14,0.54,2.33,1.08,3.55,1.47c1.21,0.37,2.51,0.66,3.71,0.48
				c0.29-0.05,0.58-0.12,0.82-0.25c0.11-0.06,0.24-0.15,0.28-0.21c0.08-0.1,0.15-0.23,0.21-0.36c0.23-0.52,0.3-1.11,0.12-1.65
				c-0.17-0.54-0.53-1.05-0.99-1.45c-0.21-0.23-0.49-0.38-0.72-0.58c-0.26-0.18-0.53-0.34-0.8-0.51c-1.11-0.61-2.34-1.08-3.5-1.71
				c-0.29-0.16-0.58-0.34-0.82-0.59c-0.25-0.24-0.4-0.57-0.44-0.9C1303.28,790.38,1303.38,789.75,1303.43,789.11z"/>
			<path class="st26" d="M1308.41,799.58c0.79,0.58,1.49,1.44,1.54,2.49c0.01,0.52-0.12,1.04-0.38,1.49
				c-0.05,0.11-0.16,0.25-0.28,0.34c-0.11,0.09-0.23,0.17-0.35,0.23c-0.24,0.13-0.5,0.21-0.77,0.27c-1.05,0.22-2.11,0.07-3.1-0.16
				c-0.99-0.25-1.96-0.59-2.89-0.99c-0.47-0.19-0.92-0.43-1.37-0.64c-0.48-0.22-0.9-0.53-1.3-0.84c-0.79-0.65-1.5-1.42-1.95-2.34
				c-0.24-0.45-0.38-0.95-0.48-1.44c-0.02-0.25-0.07-0.51-0.06-0.75l0.03-0.75c0.1-0.98,0.21-1.95,0.43-2.9
				c-0.08,0.97-0.12,1.95-0.11,2.92l0.01,0.72c0,0.24,0.06,0.47,0.1,0.7c0.12,0.45,0.28,0.9,0.52,1.3c0.47,0.81,1.13,1.52,1.9,2.1
				c0.38,0.28,0.78,0.57,1.21,0.76c0.45,0.2,0.89,0.43,1.34,0.61c0.9,0.4,1.83,0.73,2.78,0.99c0.94,0.25,1.92,0.39,2.85,0.26
				c0.45-0.08,0.94-0.24,1.14-0.57c0.25-0.38,0.39-0.83,0.41-1.29c0.02-0.46-0.1-0.93-0.33-1.35
				C1309.08,800.3,1308.75,799.94,1308.41,799.58z"/>
			<path class="st26" d="M1308.42,804.19c0.33,0.63,0.33,1.42,0.04,2.1c-0.08,0.16-0.16,0.35-0.33,0.49
				c-0.15,0.14-0.33,0.23-0.5,0.32c-0.36,0.17-0.74,0.23-1.12,0.28c-1.53,0.13-2.97-0.32-4.33-0.82c-0.67-0.28-1.34-0.56-1.99-0.89
				c-0.68-0.32-1.28-0.77-1.8-1.28c-0.52-0.51-0.98-1.09-1.31-1.74c-0.31-0.65-0.5-1.36-0.48-2.07c0.23,1.4,1.08,2.57,2.13,3.45
				c0.54,0.43,1.1,0.85,1.74,1.11c0.64,0.31,1.29,0.58,1.95,0.84c0.66,0.25,1.33,0.48,2.01,0.65c0.68,0.18,1.37,0.28,2.05,0.27
				c0.34-0.02,0.68-0.05,0.99-0.16c0.15-0.06,0.3-0.12,0.42-0.22c0.12-0.07,0.19-0.22,0.28-0.36
				C1308.52,805.59,1308.61,804.87,1308.42,804.19z"/>
			<path class="st26" d="M1306.93,807.09c0.48,0.43,0.84,1.05,0.84,1.74c0,0.34-0.08,0.68-0.24,1c-0.04,0.08-0.08,0.15-0.13,0.23
				c-0.08,0.1-0.15,0.15-0.23,0.21c-0.15,0.11-0.32,0.19-0.49,0.25c-0.68,0.25-1.4,0.21-2.07,0.13c-0.67-0.09-1.32-0.27-1.95-0.49
				c-0.63-0.22-1.24-0.48-1.83-0.77c-0.29-0.16-0.6-0.28-0.89-0.47c-0.28-0.18-0.55-0.39-0.79-0.62c-0.99-0.87-1.74-2.13-1.69-3.42
				c0.22,1.27,1.05,2.29,2.02,3.05c0.25,0.19,0.5,0.37,0.77,0.52c0.25,0.16,0.56,0.26,0.85,0.4c0.58,0.27,1.17,0.51,1.78,0.71
				c0.6,0.22,1.21,0.39,1.83,0.49c0.61,0.11,1.25,0.14,1.81-0.01c0.14-0.04,0.27-0.09,0.38-0.16c0.05-0.03,0.11-0.08,0.14-0.1
				c0.04-0.05,0.08-0.11,0.12-0.17c0.15-0.25,0.26-0.53,0.29-0.82c0.04-0.29,0.01-0.6-0.08-0.89
				C1307.27,807.63,1307.11,807.36,1306.93,807.09z"/>
		</g>
	</g>
</g>
</svg>
